<?xml version="1.0" encoding="utf-8"?>
<!-- Generator: Adobe Illustrator 21.0.1, SVG Export Plug-In . SVG Version: 6.00 Build 0)  -->
<svg version="1.1" id="Layer_1" xmlns="http://www.w3.org/2000/svg" xmlns:xlink="http://www.w3.org/1999/xlink" x="0px" y="0px"
	 viewBox="0 0 100 100.1" style="enable-background:new 0 0 100 100.1;" xml:space="preserve">
<style type="text/css">
	.st0{fill:#8BC4C3;stroke:#8BC4C3;stroke-width:1.4173;stroke-miterlimit:10;}
	.st1{fill:#8BC4C3;stroke:#8BC4C3;stroke-width:0.7087;stroke-miterlimit:10;}
	.st2{font-family:'Rajdhani-Regular';}
	.st3{font-size:18.4955px;}
</style>
<g>
	<g>
		<g>
			<path class="st0" d="M50.7,89.1l0-0.5c0.6,0,1.3,0,1.9-0.1l0,0.5C52,89.1,51.3,89.1,50.7,89.1z M48.7,89.1c-0.6,0-1.3-0.1-2-0.1
				l0-0.5c0.6,0.1,1.3,0.1,1.9,0.1L48.7,89.1z M54.6,88.9l0-0.5c0.6-0.1,1.3-0.1,1.9-0.2l0.1,0.5C55.9,88.8,55.2,88.8,54.6,88.9z
				 M44.8,88.7c-0.6-0.1-1.3-0.2-1.9-0.3l0.1-0.5c0.6,0.1,1.3,0.2,1.9,0.3L44.8,88.7z M58.4,88.3l-0.1-0.5c0.6-0.1,1.3-0.3,1.9-0.4
				l0.1,0.5C59.7,88,59.1,88.2,58.4,88.3z M41,87.9c-0.6-0.2-1.3-0.3-1.9-0.5l0.1-0.5c0.6,0.2,1.2,0.4,1.9,0.5L41,87.9z M62.2,87.3
				l-0.1-0.5c0.6-0.2,1.2-0.4,1.8-0.6l0.2,0.5C63.5,86.9,62.9,87.1,62.2,87.3z M37.2,86.7c-0.6-0.2-1.2-0.5-1.8-0.7l0.2-0.4
				c0.6,0.2,1.2,0.5,1.8,0.7L37.2,86.7z M65.9,86l-0.2-0.4c0.6-0.3,1.2-0.5,1.8-0.8l0.2,0.4C67.1,85.4,66.5,85.7,65.9,86z
				 M33.6,85.2c-0.6-0.3-1.2-0.6-1.7-0.9l0.2-0.4c0.6,0.3,1.1,0.6,1.7,0.9L33.6,85.2z M69.4,84.2l-0.2-0.4c0.6-0.3,1.1-0.6,1.7-1
				l0.3,0.4C70.5,83.6,70,83.9,69.4,84.2z M30.2,83.3c-0.6-0.3-1.1-0.7-1.6-1.1l0.3-0.4c0.5,0.4,1.1,0.7,1.6,1.1L30.2,83.3z
				 M72.7,82.2l-0.3-0.4c0.5-0.4,1-0.7,1.6-1.1l0.3,0.4C73.8,81.4,73.3,81.8,72.7,82.2z M27,81c-0.5-0.4-1-0.8-1.5-1.2l0.3-0.4
				c0.5,0.4,1,0.8,1.5,1.2L27,81z M75.8,79.8l-0.3-0.4c0.5-0.4,1-0.9,1.4-1.3l0.3,0.4C76.8,78.9,76.3,79.3,75.8,79.8z M24,78.5
				c-0.5-0.5-0.9-0.9-1.4-1.4l0.4-0.3c0.4,0.5,0.9,0.9,1.4,1.4L24,78.5z M78.7,77.1l-0.4-0.3c0.4-0.5,0.9-0.9,1.3-1.4l0.4,0.3
				C79.6,76.1,79.1,76.6,78.7,77.1z M21.3,75.6c-0.4-0.5-0.8-1-1.2-1.5l0.4-0.3c0.4,0.5,0.8,1,1.2,1.5L21.3,75.6z M81.2,74.1
				l-0.4-0.3c0.4-0.5,0.8-1,1.1-1.6l0.4,0.3C82,73.1,81.6,73.6,81.2,74.1z M18.9,72.6c-0.4-0.5-0.7-1.1-1.1-1.6l0.4-0.3
				c0.3,0.5,0.7,1.1,1.1,1.6L18.9,72.6z M83.5,70.9l-0.4-0.3c0.3-0.5,0.7-1.1,1-1.7l0.4,0.2C84.1,69.8,83.8,70.3,83.5,70.9z
				 M16.8,69.2c-0.3-0.6-0.6-1.1-0.9-1.7l0.4-0.2c0.3,0.6,0.6,1.2,0.9,1.7L16.8,69.2z M85.4,67.5l-0.4-0.2c0.3-0.6,0.6-1.2,0.8-1.8
				l0.4,0.2C85.9,66.3,85.7,66.9,85.4,67.5z M15.1,65.7c-0.3-0.6-0.5-1.2-0.7-1.8l0.5-0.2c0.2,0.6,0.5,1.2,0.7,1.8L15.1,65.7z
				 M86.9,63.8l-0.5-0.2c0.2-0.6,0.4-1.2,0.6-1.8l0.5,0.1C87.4,62.6,87.1,63.2,86.9,63.8z M13.7,62.1c-0.2-0.6-0.4-1.3-0.5-1.9
				l0.5-0.1c0.2,0.6,0.3,1.2,0.5,1.9L13.7,62.1z M88.1,60.1L87.6,60c0.2-0.6,0.3-1.3,0.4-1.9l0.5,0.1C88.4,58.8,88.3,59.5,88.1,60.1
				z M12.7,58.3c-0.1-0.6-0.2-1.3-0.3-1.9l0.5-0.1c0.1,0.6,0.2,1.3,0.3,1.9L12.7,58.3z M88.9,56.3l-0.5-0.1c0.1-0.6,0.2-1.3,0.2-1.9
				l0.5,0C89.1,55,89,55.6,88.9,56.3z M12.1,54.4c-0.1-0.6-0.1-1.3-0.1-2l0.5,0c0,0.6,0.1,1.3,0.1,1.9L12.1,54.4z M89.3,52.4l-0.5,0
				c0-0.6,0-1.3,0-1.9v-0.2h0.5v0.2C89.3,51.1,89.3,51.7,89.3,52.4z M12.4,50.5h-0.5v-0.1c0-0.6,0-1.3,0-1.9l0.5,0
				C12.4,49.2,12.4,49.8,12.4,50.5C12.4,50.4,12.4,50.5,12.4,50.5z M88.8,48.3c0-0.6-0.1-1.3-0.2-1.9l0.5-0.1c0.1,0.6,0.1,1.3,0.2,2
				L88.8,48.3z M12.6,46.6l-0.5,0c0.1-0.6,0.1-1.3,0.2-1.9l0.5,0.1C12.7,45.3,12.7,46,12.6,46.6z M88.4,44.5
				c-0.1-0.6-0.2-1.3-0.3-1.9l0.5-0.1c0.1,0.6,0.2,1.3,0.4,1.9L88.4,44.5z M13.2,42.8l-0.5-0.1c0.1-0.6,0.3-1.3,0.4-1.9l0.5,0.1
				C13.4,41.5,13.3,42.2,13.2,42.8z M87.6,40.7c-0.2-0.6-0.3-1.2-0.5-1.9l0.5-0.1c0.2,0.6,0.4,1.3,0.5,1.9L87.6,40.7z M14.1,39.1
				l-0.5-0.1c0.2-0.6,0.4-1.2,0.6-1.9l0.5,0.2C14.5,37.8,14.3,38.4,14.1,39.1z M86.4,37c-0.2-0.6-0.5-1.2-0.7-1.8l0.4-0.2
				c0.3,0.6,0.5,1.2,0.7,1.8L86.4,37z M15.5,35.4L15,35.2c0.3-0.6,0.5-1.2,0.8-1.8l0.4,0.2C16,34.2,15.7,34.8,15.5,35.4z M84.9,33.5
				c-0.3-0.6-0.6-1.2-0.9-1.7l0.4-0.2c0.3,0.6,0.6,1.1,0.9,1.7L84.9,33.5z M17.2,31.9l-0.4-0.2c0.3-0.6,0.6-1.1,1-1.7l0.4,0.3
				C17.8,30.8,17.5,31.4,17.2,31.9z M83,30.1c-0.3-0.5-0.7-1.1-1.1-1.6l0.4-0.3c0.4,0.5,0.7,1.1,1.1,1.6L83,30.1z M19.2,28.6
				l-0.4-0.3c0.4-0.5,0.8-1.1,1.2-1.6l0.4,0.3C20,27.6,19.6,28.1,19.2,28.6z M80.8,26.9c-0.4-0.5-0.8-1-1.2-1.5l0.4-0.3
				c0.4,0.5,0.8,1,1.2,1.5L80.8,26.9z M21.6,25.6l-0.4-0.3c0.4-0.5,0.9-1,1.3-1.5l0.4,0.3C22.4,24.6,22,25.1,21.6,25.6z M78.2,24
				c-0.4-0.5-0.9-0.9-1.4-1.4l0.3-0.4c0.5,0.4,0.9,0.9,1.4,1.4L78.2,24z M24.2,22.8l-0.3-0.4c0.5-0.4,1-0.9,1.5-1.3l0.3,0.4
				C25.2,21.9,24.7,22.3,24.2,22.8z M75.4,21.3c-0.5-0.4-1-0.8-1.5-1.2l0.3-0.4c0.5,0.4,1,0.8,1.5,1.2L75.4,21.3z M27.2,20.2
				l-0.3-0.4c0.5-0.4,1-0.8,1.6-1.2l0.3,0.4C28.2,19.5,27.7,19.9,27.2,20.2z M72.4,19c-0.5-0.4-1.1-0.7-1.6-1.1l0.3-0.4
				c0.6,0.3,1.1,0.7,1.6,1.1L72.4,19z M30.3,18l-0.3-0.4c0.6-0.3,1.1-0.7,1.7-1L32,17C31.4,17.4,30.9,17.7,30.3,18z M69.1,16.9
				c-0.6-0.3-1.1-0.6-1.7-0.9l0.2-0.4c0.6,0.3,1.2,0.6,1.7,0.9L69.1,16.9z M33.7,16.1l-0.2-0.4c0.6-0.3,1.2-0.6,1.8-0.8l0.2,0.4
				C34.9,15.6,34.3,15.9,33.7,16.1z M65.6,15.2c-0.6-0.3-1.2-0.5-1.8-0.7l0.2-0.5c0.6,0.2,1.2,0.5,1.8,0.7L65.6,15.2z M37.3,14.6
				l-0.2-0.5c0.6-0.2,1.2-0.4,1.9-0.6l0.1,0.5C38.5,14.2,37.9,14.4,37.3,14.6z M61.9,13.9c-0.6-0.2-1.2-0.4-1.9-0.5l0.1-0.5
				c0.6,0.2,1.3,0.3,1.9,0.5L61.9,13.9z M40.9,13.4L40.8,13c0.6-0.2,1.3-0.3,1.9-0.4l0.1,0.5C42.2,13.1,41.6,13.3,40.9,13.4z
				 M58.2,13c-0.6-0.1-1.3-0.2-1.9-0.3l0.1-0.5c0.6,0.1,1.3,0.2,1.9,0.3L58.2,13z M44.7,12.7l-0.1-0.5c0.6-0.1,1.3-0.2,1.9-0.3
				l0.1,0.5C46,12.5,45.4,12.6,44.7,12.7z M48.6,12.3l0-0.5c0.6,0,1.3-0.1,2-0.1l0,0.5C49.9,12.2,49.2,12.2,48.6,12.3z"/>
		</g>
	</g>
	<text transform="matrix(-0.9995 3.315716e-02 -3.315716e-02 -0.9995 53.1339 5.9538)" class="st1 st2 st3">&lt;</text>
</g>
</svg>
