<?xml version="1.0" encoding="utf-8"?>
<!-- Generator: Adobe Illustrator 21.0.1, SVG Export Plug-In . SVG Version: 6.00 Build 0)  -->
<svg version="1.1" xmlns="http://www.w3.org/2000/svg" xmlns:xlink="http://www.w3.org/1999/xlink" x="0px" y="0px"
	 viewBox="0 0 100 100.1" style="enable-background:new 0 0 100 100.1;" xml:space="preserve">
<style type="text/css">
	.st0{fill:none;}
	.st1{clip-path:url(#SVGID_2_);}
	.st2{fill:#8BC4C3;}
	.st3{font-family:'Rajdhani-Bold';}
	.st4{font-size:27.1289px;}
	.st5{display:none;}
	.st6{display:inline;fill:none;stroke:#8BC4C3;stroke-miterlimit:10;}
	.st7{display:inline;fill:none;stroke:#CE8669;stroke-width:0.7087;stroke-miterlimit:10;}
	.st8{display:inline;fill:none;stroke:#CE8669;stroke-miterlimit:10;}
</style>
<g id="Layer_1">
	<g>
		<g>
			<line class="st0" x1="18.3" y1="89.6" x2="24.9" y2="88.4"/>
			<line class="st0" x1="54.9" y1="96.9" x2="54.1" y2="96.4"/>
			<g>
				<g>
					<defs>
						<polyline id="SVGID_1_" points="47.8,98.5 47.8,91.7 52,91.7 52,99.3 103.1,98.7 103.3,-1.6 -8,-1.8 -2.3,98.5 						"/>
					</defs>
					<clipPath id="SVGID_2_">
						<use xlink:href="#SVGID_1_"  style="overflow:visible;"/>
					</clipPath>
					<g class="st1">
						<path class="st2" d="M50.1,97.1c-25.8,0-46.7-21-46.7-46.7c0-25.8,21-46.7,46.7-46.7c25.8,0,46.7,21,46.7,46.7
							C96.8,76.2,75.8,97.1,50.1,97.1z M50.1,6.6C25.9,6.6,6.3,26.3,6.3,50.4S26,94.2,50.1,94.2c1.7,0,3.4-0.1,5-0.3
							c21.8-2.5,38.8-21.1,38.8-43.5C93.9,26.3,74.2,6.6,50.1,6.6z"/>
					</g>
				</g>
			</g>
		</g>
		<text transform="matrix(0.7016 0.1511 -0.2106 0.9776 37.4491 103.2235)" class="st2 st3 st4">&gt;</text>
	</g>
</g>
<g id="Layer_2" class="st5">
	<rect x="0.3" y="0.1" class="st6" width="99.8" height="99.8"/>
	<line class="st7" x1="50.3" y1="-3.4" x2="50.3" y2="104.3"/>
	<line class="st8" x1="-4.3" y1="50" x2="108" y2="50"/>
</g>
</svg>
