<?xml version="1.0" encoding="utf-8"?>
<!-- Generator: Adobe Illustrator 21.0.1, SVG Export Plug-In . SVG Version: 6.00 Build 0)  -->
<svg version="1.1" xmlns="http://www.w3.org/2000/svg" xmlns:xlink="http://www.w3.org/1999/xlink" x="0px" y="0px"
	 viewBox="0 0 100 100.1" style="enable-background:new 0 0 100 100.1;" xml:space="preserve">
<style type="text/css">
	.st0{fill:#8BC4C3;stroke:#8BC4C3;stroke-width:0.7087;stroke-miterlimit:10;}
	.st1{fill:none;}
	.st2{fill:#8BC4C3;}
	.st3{font-family:'Rajdhani-Bold';}
	.st4{font-size:18.4955px;}
	.st5{display:none;}
	.st6{display:inline;fill:none;stroke:#8BC4C3;stroke-miterlimit:10;}
	.st7{display:inline;fill:none;stroke:#CE8669;stroke-width:0.7087;stroke-miterlimit:10;}
	.st8{display:inline;fill:none;stroke:#CE8669;stroke-miterlimit:10;}
</style>
<g id="Layer_1">
	<g>
		<g>
			<g>
				<path class="st0" d="M50,89.1v-0.5c0.6,0,1.3,0,1.9-0.1V89C51.3,89.1,50.6,89.1,50,89.1z M48,89.1c-0.6,0-1.3-0.1-2-0.1v-0.5
					c0.6,0.1,1.3,0.1,1.9,0.1L48,89.1z M53.9,88.9v-0.5c0.6-0.1,1.3-0.1,1.9-0.2l0.1,0.5C55.2,88.8,54.5,88.8,53.9,88.9z M44.1,88.7
					c-0.6-0.1-1.3-0.2-1.9-0.3l0.1-0.5c0.6,0.1,1.3,0.2,1.9,0.3L44.1,88.7z M57.7,88.3l-0.1-0.5c0.6-0.1,1.3-0.3,1.9-0.4l0.1,0.5
					C59,88,58.4,88.2,57.7,88.3z M40.3,87.9c-0.6-0.2-1.3-0.3-1.9-0.5l0.1-0.5c0.6,0.2,1.2,0.4,1.9,0.5L40.3,87.9z M61.5,87.3
					l-0.1-0.5c0.6-0.2,1.2-0.4,1.8-0.6l0.2,0.5C62.8,86.9,62.2,87.1,61.5,87.3z M36.5,86.7c-0.6-0.2-1.2-0.5-1.8-0.7l0.2-0.4
					c0.6,0.2,1.2,0.5,1.8,0.7L36.5,86.7z M65.2,86L65,85.6c0.6-0.3,1.2-0.5,1.8-0.8l0.2,0.4C66.4,85.4,65.8,85.7,65.2,86z
					 M32.9,85.2c-0.6-0.3-1.2-0.6-1.7-0.9l0.2-0.4c0.6,0.3,1.1,0.6,1.7,0.9L32.9,85.2z M68.7,84.2l-0.2-0.4c0.6-0.3,1.1-0.6,1.7-1
					l0.3,0.4C69.8,83.6,69.3,83.9,68.7,84.2z M29.5,83.3c-0.6-0.3-1.1-0.7-1.6-1.1l0.3-0.4c0.5,0.4,1.1,0.7,1.6,1.1L29.5,83.3z
					 M72,82.2l-0.3-0.4c0.5-0.4,1-0.7,1.6-1.1l0.3,0.4C73.1,81.4,72.6,81.8,72,82.2z M26.3,81c-0.5-0.4-1-0.8-1.5-1.2l0.3-0.4
					c0.5,0.4,1,0.8,1.5,1.2L26.3,81z M75.1,79.8l-0.3-0.4c0.5-0.4,1-0.9,1.4-1.3l0.3,0.4C76.1,78.9,75.6,79.3,75.1,79.8z M23.3,78.5
					c-0.5-0.5-0.9-0.9-1.4-1.4l0.4-0.3c0.4,0.5,0.9,0.9,1.4,1.4L23.3,78.5z M78,77.1l-0.4-0.3c0.4-0.5,0.9-0.9,1.3-1.4l0.4,0.3
					C78.9,76.1,78.4,76.6,78,77.1z M20.6,75.6c-0.4-0.5-0.8-1-1.2-1.5l0.4-0.3c0.4,0.5,0.8,1,1.2,1.5L20.6,75.6z M80.5,74.1
					l-0.4-0.3c0.4-0.5,0.8-1,1.1-1.6l0.4,0.3C81.3,73.1,80.9,73.6,80.5,74.1z M18.2,72.6c-0.4-0.5-0.7-1.1-1.1-1.6l0.4-0.3
					c0.3,0.5,0.7,1.1,1.1,1.6L18.2,72.6z M82.8,70.9l-0.4-0.3c0.3-0.5,0.7-1.1,1-1.7l0.4,0.2C83.4,69.8,83.1,70.3,82.8,70.9z
					 M16.1,69.2c-0.3-0.6-0.6-1.1-0.9-1.7l0.4-0.2c0.3,0.6,0.6,1.2,0.9,1.7L16.1,69.2z M84.7,67.5l-0.4-0.2c0.3-0.6,0.6-1.2,0.8-1.8
					l0.4,0.2C85.2,66.3,85,66.9,84.7,67.5z M14.4,65.7c-0.3-0.6-0.5-1.2-0.7-1.8l0.5-0.2c0.2,0.6,0.5,1.2,0.7,1.8L14.4,65.7z
					 M86.2,63.8l-0.5-0.2c0.2-0.6,0.4-1.2,0.6-1.8l0.5,0.1C86.7,62.6,86.4,63.2,86.2,63.8z M13,62.1c-0.2-0.6-0.4-1.3-0.5-1.9
					l0.5-0.1c0.2,0.6,0.3,1.2,0.5,1.9L13,62.1z M87.4,60.1L86.9,60c0.2-0.6,0.3-1.3,0.4-1.9l0.5,0.1C87.7,58.8,87.6,59.5,87.4,60.1z
					 M12,58.3c-0.1-0.6-0.2-1.3-0.3-1.9l0.5-0.1c0.1,0.6,0.2,1.3,0.3,1.9L12,58.3z M88.2,56.3l-0.5-0.1c0.1-0.6,0.2-1.3,0.2-1.9h0.5
					C88.4,55,88.3,55.6,88.2,56.3z M11.4,54.4c-0.1-0.6-0.1-1.3-0.1-2h0.5c0,0.6,0.1,1.3,0.1,1.9L11.4,54.4z M88.6,52.4h-0.5
					c0-0.6,0-1.3,0-1.9v-0.2h0.5v0.2C88.6,51.1,88.6,51.7,88.6,52.4z M11.7,50.5h-0.5v-0.1c0-0.6,0-1.3,0-1.9h0.5
					C11.7,49.2,11.7,49.8,11.7,50.5C11.7,50.4,11.7,50.5,11.7,50.5z M88.1,48.3c0-0.6-0.1-1.3-0.2-1.9l0.5-0.1
					c0.1,0.6,0.1,1.3,0.2,2H88.1z M11.9,46.6h-0.5c0.1-0.6,0.1-1.3,0.2-1.9l0.5,0.1C12,45.3,12,46,11.9,46.6z M87.7,44.5
					c-0.1-0.6-0.2-1.3-0.3-1.9l0.5-0.1c0.1,0.6,0.2,1.3,0.4,1.9L87.7,44.5z M12.5,42.8L12,42.7c0.1-0.6,0.3-1.3,0.4-1.9l0.5,0.1
					C12.7,41.5,12.6,42.2,12.5,42.8z M86.9,40.7c-0.2-0.6-0.3-1.2-0.5-1.9l0.5-0.1c0.2,0.6,0.4,1.3,0.5,1.9L86.9,40.7z M13.4,39.1
					L12.9,39c0.2-0.6,0.4-1.2,0.6-1.9l0.5,0.2C13.8,37.8,13.6,38.4,13.4,39.1z M85.7,37c-0.2-0.6-0.5-1.2-0.7-1.8l0.4-0.2
					c0.3,0.6,0.5,1.2,0.7,1.8L85.7,37z M14.8,35.4l-0.5-0.2c0.3-0.6,0.5-1.2,0.8-1.8l0.4,0.2C15.3,34.2,15,34.8,14.8,35.4z
					 M84.2,33.5c-0.3-0.6-0.6-1.2-0.9-1.7l0.4-0.2c0.3,0.6,0.6,1.1,0.9,1.7L84.2,33.5z M16.5,31.9l-0.4-0.2c0.3-0.6,0.6-1.1,1-1.7
					l0.4,0.3C17.1,30.8,16.8,31.4,16.5,31.9z M82.3,30.1c-0.3-0.5-0.7-1.1-1.1-1.6l0.4-0.3c0.4,0.5,0.7,1.1,1.1,1.6L82.3,30.1z
					 M18.5,28.6l-0.4-0.3c0.4-0.5,0.8-1.1,1.2-1.6l0.4,0.3C19.3,27.6,18.9,28.1,18.5,28.6z M80.1,26.9c-0.4-0.5-0.8-1-1.2-1.5
					l0.4-0.3c0.4,0.5,0.8,1,1.2,1.5L80.1,26.9z M20.9,25.6l-0.4-0.3c0.4-0.5,0.9-1,1.3-1.5l0.4,0.3C21.7,24.6,21.3,25.1,20.9,25.6z
					 M77.5,24c-0.4-0.5-0.9-0.9-1.4-1.4l0.3-0.4c0.5,0.4,0.9,0.9,1.4,1.4L77.5,24z M23.5,22.8l-0.3-0.4c0.5-0.4,1-0.9,1.5-1.3
					l0.3,0.4C24.5,21.9,24,22.3,23.5,22.8z M74.7,21.3c-0.5-0.4-1-0.8-1.5-1.2l0.3-0.4c0.5,0.4,1,0.8,1.5,1.2L74.7,21.3z M26.5,20.2
					l-0.3-0.4c0.5-0.4,1-0.8,1.6-1.2l0.3,0.4C27.5,19.5,27,19.9,26.5,20.2z M71.7,19c-0.5-0.4-1.1-0.7-1.6-1.1l0.3-0.4
					c0.6,0.3,1.1,0.7,1.6,1.1L71.7,19z M29.6,18l-0.3-0.4c0.6-0.3,1.1-0.7,1.7-1l0.3,0.4C30.7,17.4,30.2,17.7,29.6,18z M68.4,16.9
					c-0.6-0.3-1.1-0.6-1.7-0.9l0.2-0.4c0.6,0.3,1.2,0.6,1.7,0.9L68.4,16.9z M33,16.1l-0.2-0.4c0.6-0.3,1.2-0.6,1.8-0.8l0.2,0.4
					C34.2,15.6,33.6,15.9,33,16.1z M64.9,15.2c-0.6-0.3-1.2-0.5-1.8-0.7l0.2-0.5c0.6,0.2,1.2,0.5,1.8,0.7L64.9,15.2z M36.6,14.6
					l-0.2-0.5c0.6-0.2,1.2-0.4,1.9-0.6l0.1,0.5C37.8,14.2,37.2,14.4,36.6,14.6z M61.2,13.9c-0.6-0.2-1.2-0.4-1.9-0.5l0.1-0.5
					c0.6,0.2,1.3,0.3,1.9,0.5L61.2,13.9z M40.2,13.4L40.1,13c0.6-0.2,1.3-0.3,1.9-0.4l0.1,0.5C41.5,13.1,40.9,13.3,40.2,13.4z
					 M57.5,13c-0.6-0.1-1.3-0.2-1.9-0.3l0.1-0.5c0.6,0.1,1.3,0.2,1.9,0.3L57.5,13z M44,12.7l-0.1-0.5c0.6-0.1,1.3-0.2,1.9-0.3
					l0.1,0.5C45.3,12.5,44.7,12.6,44,12.7z M47.9,12.3v-0.5c0.6,0,1.3-0.1,2-0.1v0.5C49.2,12.2,48.5,12.2,47.9,12.3z"/>
			</g>
			<line class="st1" x1="18.3" y1="89.6" x2="24.9" y2="88.4"/>
			<line class="st1" x1="54.9" y1="96.9" x2="54.1" y2="96.4"/>
		</g>
		<text transform="matrix(-0.9998 1.638382e-02 -1.638382e-02 -0.9998 52.793 6.045)" class="st2 st3 st4">&lt;</text>
	</g>
</g>
<g id="Layer_2" class="st5">
	<rect x="0.3" y="0.1" class="st6" width="99.8" height="99.8"/>
	<line class="st7" x1="50.3" y1="-3.4" x2="50.3" y2="104.3"/>
	<line class="st8" x1="-4.3" y1="50" x2="108" y2="50"/>
</g>
</svg>
