<?xml version="1.0" encoding="utf-8"?>
<!-- Generator: Adobe Illustrator 21.0.1, SVG Export Plug-In . SVG Version: 6.00 Build 0)  -->
<svg version="1.1" id="Layer_1" xmlns="http://www.w3.org/2000/svg" xmlns:xlink="http://www.w3.org/1999/xlink" x="0px" y="0px"
	 viewBox="0 0 100 100.1" style="enable-background:new 0 0 100 100.1;" xml:space="preserve">
<style type="text/css">
	.st0{fill:none;}
	.st1{fill:#8BC4C3;}
</style>
<g>
	<polygon points="29.8,44.5 6.3,37.2 11.8,25.8 22.6,14.6 22.8,15.7 41,38.5 	"/>
	<g>
		<path class="st0" d="M40.7,47.7c-0.3,0.9-0.4,1.9-0.4,2.9c0,5.6,4.6,10.2,10.2,10.2s10.2-4.6,10.2-10.2s-4.6-10.2-10.2-10.2
			c-2.4,0-4.7,0.9-6.4,2.3"/>
		<path class="st0" d="M45.9,45c1.3-1.1,2.9-1.7,4.8-1.7c4.1,0,7.4,3.3,7.4,7.4S54.7,58,50.6,58c-4.1,0-7.4-3.3-7.4-7.4
			c0-0.7,0.1-1.4,0.3-2.1"/>
		<path class="st1" d="M50.6,58c4.1,0,7.4-3.3,7.4-7.4s-3.3-7.4-7.4-7.4c-1.8,0-3.5,0.7-4.8,1.7l4.2,5.4l-6.5-1.9
			c-0.2,0.7-0.3,1.4-0.3,2.1C43.2,54.7,46.6,58,50.6,58z"/>
		<path class="st1" d="M77.1,49.7c-6.7-9.1-16.7-14.4-27.4-14.4c-10.2,0-19.9,4.9-26.6,13.3l-1,1.2l0.9,1.3
			c6.7,9.1,16.7,14.4,27.4,14.4c10.2,0,19.9-4.9,26.6-13.3l1-1.2L77.1,49.7z M50.5,60.9c-5.6,0-10.2-4.6-10.2-10.2
			c0-1,0.2-2,0.4-2.9L38.3,47c-0.3,1.1-0.5,2.4-0.5,3.6c0,3.8,1.7,7.2,4.4,9.6c-5.7-1.7-10.9-5.2-14.9-10.2c4.1-4.7,9.4-8,15.1-9.6
			l0.2,0.3l1.5,1.9c1.8-1.4,4-2.3,6.4-2.3c5.6,0,10.2,4.6,10.2,10.2C60.7,56.3,56.1,60.9,50.5,60.9z M58.8,60.1
			c2.7-2.3,4.3-5.7,4.3-9.5c0-3.9-1.8-7.5-4.6-9.8C64,42.6,69,46,72.9,50.9C69,55.3,64.1,58.5,58.8,60.1z"/>
		<g>
			<polygon class="st1" points="42.2,40.3 21.8,15.1 22.4,14.6 42.8,40.5 			"/>
		</g>
		<g>
			<rect x="27" y="22.3" transform="matrix(0.299 -0.9543 0.9543 0.299 -22.7522 56.9087)" class="st1" width="0.7" height="43.3"/>
		</g>
		<line x1="18.3" y1="89.6" x2="24.9" y2="88.4"/>
		<line x1="54.9" y1="96.9" x2="54.1" y2="96.4"/>
		<g>
			<defs>
				<polyline id="SVGID_1_" points="47.8,98.5 47.8,91.7 52,91.7 52,99.3 103.1,98.7 103.3,-1.6 -8,-1.8 -2.3,98.5 				"/>
			</defs>
			<clipPath id="SVGID_2_">
				<use xlink:href="#SVGID_1_"  style="overflow:visible;"/>
			</clipPath>
		</g>
	</g>
</g>
</svg>
